{
    "asset" : {
        "generator" : "Khronos glTF Blender I/O v1.6.16",
        "version" : "2.0"
    },
    "scene" : 0,
    "scenes" : [
        {
            "name" : "Scene",
            "nodes" : [
                10,
                11,
                12
            ]
        }
    ],
    "nodes" : [
        {
            "mesh" : 0,
            "name" : "polySurface2_lambert1_0"
        },
        {
            "mesh" : 1,
            "name" : "polySurface2_lambert1_0.001"
        },
        {
            "mesh" : 2,
            "name" : "polySurface2_lambert1_0.002"
        },
        {
            "mesh" : 3,
            "name" : "polySurface2_lambert1_0.003"
        },
        {
            "mesh" : 4,
            "name" : "polySurface2_lambert1_0.004"
        },
        {
            "mesh" : 5,
            "name" : "polySurface2_lambert1_0.005"
        },
        {
            "children" : [
                0,
                1,
                2,
                3,
                4,
                5
            ],
            "name" : "polySurface2",
            "scale" : [
                1,
                0.9307112693786621,
                1.405464768409729
            ]
        },
        {
            "children" : [
                6
            ],
            "name" : "RootNode"
        },
        {
            "children" : [
                7
            ],
            "name" : "637e3fc13241442d9334892e002f12cf.fbx",
            "rotation" : [
                0.7071068286895752,
                0,
                0,
                0.7071068286895752
            ]
        },
        {
            "children" : [
                8
            ],
            "name" : "RootNode (model correction matrix)"
        },
        {
            "children" : [
                9
            ],
            "name" : "RootNode (gltf orientation matrix)",
            "rotation" : [
                -0.7071068286895752,
                0,
                0,
                0.7071068286895752
            ],
            "scale" : [
                0.012329936027526855,
                0.012329936027526855,
                0.012329936027526855
            ]
        },
        {
            "name" : "Light",
            "rotation" : [
                0.16907575726509094,
                0.7558803558349609,
                -0.27217137813568115,
                0.570947527885437
            ],
            "translation" : [
                4.076245307922363,
                5.903861999511719,
                -1.0054539442062378
            ]
        },
        {
            "name" : "Camera",
            "rotation" : [
                0.483536034822464,
                0.33687159419059753,
                -0.20870360732078552,
                0.7804827094078064
            ],
            "translation" : [
                7.358891487121582,
                4.958309173583984,
                6.925790786743164
            ]
        }
    ],
    "materials" : [
        {
            "doubleSided" : true,
            "name" : "lambert1",
            "normalTexture" : {
                "index" : 0
            },
            "pbrMetallicRoughness" : {
                "baseColorTexture" : {
                    "index" : 1
                },
                "metallicFactor" : 0,
                "metallicRoughnessTexture" : {
                    "index" : 2
                }
            }
        }
    ],
    "meshes" : [
        {
            "name" : "polySurface2_lambert1_0",
            "primitives" : [
                {
                    "attributes" : {
                        "POSITION" : 0,
                        "NORMAL" : 1,
                        "TEXCOORD_0" : 2
                    },
                    "indices" : 3,
                    "material" : 0
                }
            ]
        },
        {
            "name" : "polySurface2_lambert1_0.001",
            "primitives" : [
                {
                    "attributes" : {
                        "POSITION" : 4,
                        "NORMAL" : 5,
                        "TEXCOORD_0" : 6
                    },
                    "indices" : 7,
                    "material" : 0
                }
            ]
        },
        {
            "name" : "polySurface2_lambert1_0.002",
            "primitives" : [
                {
                    "attributes" : {
                        "POSITION" : 8,
                        "NORMAL" : 9,
                        "TEXCOORD_0" : 10
                    },
                    "indices" : 11,
                    "material" : 0
                }
            ]
        },
        {
            "name" : "polySurface2_lambert1_0.003",
            "primitives" : [
                {
                    "attributes" : {
                        "POSITION" : 12,
                        "NORMAL" : 13,
                        "TEXCOORD_0" : 14
                    },
                    "indices" : 15,
                    "material" : 0
                }
            ]
        },
        {
            "name" : "polySurface2_lambert1_0.004",
            "primitives" : [
                {
                    "attributes" : {
                        "POSITION" : 16,
                        "NORMAL" : 17,
                        "TEXCOORD_0" : 18
                    },
                    "indices" : 19,
                    "material" : 0
                }
            ]
        },
        {
            "name" : "polySurface2_lambert1_0.005",
            "primitives" : [
                {
                    "attributes" : {
                        "POSITION" : 20,
                        "NORMAL" : 21,
                        "TEXCOORD_0" : 22
                    },
                    "indices" : 23,
                    "material" : 0
                }
            ]
        }
    ],
    "textures" : [
        {
            "sampler" : 0,
            "source" : 0
        },
        {
            "sampler" : 0,
            "source" : 1
        },
        {
            "sampler" : 0,
            "source" : 2
        }
    ],
    "images" : [
        {
            "mimeType" : "image/png",
            "name" : "lambert1_normal",
            "uri" : "lambert1_normal.png"
        },
        {
            "mimeType" : "image/png",
            "name" : "lambert1_baseColor",
            "uri" : "lambert1_baseColor.png"
        },
        {
            "mimeType" : "image/png",
            "name" : "lambert1_metallicRoughness",
            "uri" : "lambert1_metallicRoughness.png"
        }
    ],
    "accessors" : [
        {
            "bufferView" : 0,
            "componentType" : 5126,
            "count" : 1001,
            "max" : [
                186.13034057617188,
                119.51349639892578,
                178.34815979003906
            ],
            "min" : [
                -167.40963745117188,
                -44.09596633911133,
                -182.23745727539062
            ],
            "type" : "VEC3"
        },
        {
            "bufferView" : 1,
            "componentType" : 5126,
            "count" : 1001,
            "type" : "VEC3"
        },
        {
            "bufferView" : 2,
            "componentType" : 5126,
            "count" : 1001,
            "type" : "VEC2"
        },
        {
            "bufferView" : 3,
            "componentType" : 5123,
            "count" : 3669,
            "type" : "SCALAR"
        },
        {
            "bufferView" : 4,
            "componentType" : 5126,
            "count" : 1009,
            "max" : [
                184.70828247070312,
                119.51348114013672,
                167.92523193359375
            ],
            "min" : [
                -178.09259033203125,
                -44.09596633911133,
                -184.70828247070312
            ],
            "type" : "VEC3"
        },
        {
            "bufferView" : 5,
            "componentType" : 5126,
            "count" : 1009,
            "type" : "VEC3"
        },
        {
            "bufferView" : 6,
            "componentType" : 5126,
            "count" : 1009,
            "type" : "VEC2"
        },
        {
            "bufferView" : 7,
            "componentType" : 5123,
            "count" : 3666,
            "type" : "SCALAR"
        },
        {
            "bufferView" : 8,
            "componentType" : 5126,
            "count" : 1013,
            "max" : [
                6.638777732849121,
                254.08164978027344,
                186.13034057617188
            ],
            "min" : [
                -183.57936096191406,
                -3.7094433307647705,
                -176.16580200195312
            ],
            "type" : "VEC3"
        },
        {
            "bufferView" : 9,
            "componentType" : 5126,
            "count" : 1013,
            "type" : "VEC3"
        },
        {
            "bufferView" : 10,
            "componentType" : 5126,
            "count" : 1013,
            "type" : "VEC2"
        },
        {
            "bufferView" : 11,
            "componentType" : 5123,
            "count" : 3663,
            "type" : "SCALAR"
        },
        {
            "bufferView" : 12,
            "componentType" : 5126,
            "count" : 1012,
            "max" : [
                178.34815979003906,
                255.5394744873047,
                186.1516571044922
            ],
            "min" : [
                -186.1516571044922,
                89.86681365966797,
                -176.65235900878906
            ],
            "type" : "VEC3"
        },
        {
            "bufferView" : 13,
            "componentType" : 5126,
            "count" : 1012,
            "type" : "VEC3"
        },
        {
            "bufferView" : 14,
            "componentType" : 5126,
            "count" : 1012,
            "type" : "VEC2"
        },
        {
            "bufferView" : 15,
            "componentType" : 5123,
            "count" : 3669,
            "type" : "SCALAR"
        },
        {
            "bufferView" : 16,
            "componentType" : 5126,
            "count" : 1008,
            "max" : [
                174.6878204345703,
                256.7079162597656,
                178.34815979003906
            ],
            "min" : [
                -184.82142639160156,
                91.81708526611328,
                -183.57936096191406
            ],
            "type" : "VEC3"
        },
        {
            "bufferView" : 17,
            "componentType" : 5126,
            "count" : 1008,
            "type" : "VEC3"
        },
        {
            "bufferView" : 18,
            "componentType" : 5126,
            "count" : 1008,
            "type" : "VEC2"
        },
        {
            "bufferView" : 19,
            "componentType" : 5123,
            "count" : 3663,
            "type" : "SCALAR"
        },
        {
            "bufferView" : 20,
            "componentType" : 5126,
            "count" : 11,
            "max" : [
                22.544055938720703,
                243.76219177246094,
                72.41194915771484
            ],
            "min" : [
                -14.097347259521484,
                214.84768676757812,
                44.37322998046875
            ],
            "type" : "VEC3"
        },
        {
            "bufferView" : 21,
            "componentType" : 5126,
            "count" : 11,
            "type" : "VEC3"
        },
        {
            "bufferView" : 22,
            "componentType" : 5126,
            "count" : 11,
            "type" : "VEC2"
        },
        {
            "bufferView" : 23,
            "componentType" : 5123,
            "count" : 27,
            "type" : "SCALAR"
        }
    ],
    "bufferViews" : [
        {
            "buffer" : 0,
            "byteLength" : 12012,
            "byteOffset" : 0
        },
        {
            "buffer" : 0,
            "byteLength" : 12012,
            "byteOffset" : 12012
        },
        {
            "buffer" : 0,
            "byteLength" : 8008,
            "byteOffset" : 24024
        },
        {
            "buffer" : 0,
            "byteLength" : 7338,
            "byteOffset" : 32032
        },
        {
            "buffer" : 0,
            "byteLength" : 12108,
            "byteOffset" : 39372
        },
        {
            "buffer" : 0,
            "byteLength" : 12108,
            "byteOffset" : 51480
        },
        {
            "buffer" : 0,
            "byteLength" : 8072,
            "byteOffset" : 63588
        },
        {
            "buffer" : 0,
            "byteLength" : 7332,
            "byteOffset" : 71660
        },
        {
            "buffer" : 0,
            "byteLength" : 12156,
            "byteOffset" : 78992
        },
        {
            "buffer" : 0,
            "byteLength" : 12156,
            "byteOffset" : 91148
        },
        {
            "buffer" : 0,
            "byteLength" : 8104,
            "byteOffset" : 103304
        },
        {
            "buffer" : 0,
            "byteLength" : 7326,
            "byteOffset" : 111408
        },
        {
            "buffer" : 0,
            "byteLength" : 12144,
            "byteOffset" : 118736
        },
        {
            "buffer" : 0,
            "byteLength" : 12144,
            "byteOffset" : 130880
        },
        {
            "buffer" : 0,
            "byteLength" : 8096,
            "byteOffset" : 143024
        },
        {
            "buffer" : 0,
            "byteLength" : 7338,
            "byteOffset" : 151120
        },
        {
            "buffer" : 0,
            "byteLength" : 12096,
            "byteOffset" : 158460
        },
        {
            "buffer" : 0,
            "byteLength" : 12096,
            "byteOffset" : 170556
        },
        {
            "buffer" : 0,
            "byteLength" : 8064,
            "byteOffset" : 182652
        },
        {
            "buffer" : 0,
            "byteLength" : 7326,
            "byteOffset" : 190716
        },
        {
            "buffer" : 0,
            "byteLength" : 132,
            "byteOffset" : 198044
        },
        {
            "buffer" : 0,
            "byteLength" : 132,
            "byteOffset" : 198176
        },
        {
            "buffer" : 0,
            "byteLength" : 88,
            "byteOffset" : 198308
        },
        {
            "buffer" : 0,
            "byteLength" : 54,
            "byteOffset" : 198396
        }
    ],
    "samplers" : [
        {
            "magFilter" : 9729,
            "minFilter" : 9987
        }
    ],
    "buffers" : [
        {
            "byteLength" : 198452,
            "uri" : "scene.bin"
        }
    ]
}
